#!OML:ASF E:\motion texture\Top Level 1\Subject 1\Session 1\male.ASF
:FULLY-SPECIFIED
:DEGREES
295
root -5.1966 17.8685 4.45097 -282.03 -80.881 291.078
lowerback -1.73938 6.73004 7.10976
upperback -2.06013 8.84375 2.18212
thorax -0.444505 4.32501 -1.49933
lowerneck -17.5288 -6.17141 -8.30381
upperneck 15.2052 -8.2361 9.70988
head 8.37241 -3.47264 3.57298
rclavicle -4.87022e-014 -3.22031e-014
rhumerus -15.8982 -4.7154 -81.4167
rradius 22.1136
rwrist 13.284
rhand -15.2008 -37.1271
rfingers 7.12502
rthumb 10.9711 -66.8204
lclavicle -4.87022e-014 -3.22031e-014
lhumerus -50.5012 31.9674 60.0237
lradius 20.9703
lwrist -39.9299
lhand 2.42248 18.5247
lfingers 7.12502
lthumb 27.9086 46.4709
rfemur -0.272226 -2.36877 33.0202
rtibia 20.2568
rfoot -13.3535 -4.95138
rtoes 2.81362
lfemur -32.1862 -4.71231 -8.27309
ltibia 17.4302
lfoot -2.31563 6.84993
ltoes -10.1582
296
root -5.37602 17.8618 4.46554 -278.706 -81.1499 287.775
lowerback -1.76509 6.64295 6.96804
upperback -2.0655 8.72831 2.15597
thorax -0.460727 4.26887 -1.45363
lowerneck -17.6588 -5.97451 -8.14537
upperneck 15.3014 -7.98012 9.59175
head 8.39025 -3.34911 3.54111
rclavicle -5.51627e-015 1.19271e-015
rhumerus -17.0342 -8.11591 -80.8739
rradius 20.5736
rwrist 15.2713
rhand -15.2296 -36.9646
rfingers 7.12502
rthumb 10.9433 -66.6594
lclavicle -5.51627e-015 1.19271e-015
lhumerus -50.529 32.1054 59.8084
lradius 20.853
lwrist -40.2052
lhand 2.25284 18.5483
lfingers 7.12502
lthumb 27.7464 46.5208
rfemur -0.330492 -2.3567 32.6435
rtibia 21.2961
rfoot -12.8668 -4.43565
rtoes 2.30691
lfemur -32.0229 -4.76192 -8.39045
ltibia 17.5565
lfoot -2.21081 6.90832
ltoes -9.6572
297
root -5.55657 17.8563 4.48026 -275.334 -81.398 284.413
lowerback -1.78629 6.54486 6.81236
upperback -2.06741 8.59884 2.12959
thorax -0.478404 4.20602 -1.40152
lowerneck -17.786 -5.77306 -7.98184
upperneck 15.3952 -7.71887 9.47046
head 8.40673 -3.2233 3.50806
rclavicle 7.10904e-014 -3.10104e-014
rhumerus -18.2654 -11.7707 -80.0335
rradius 19.1389
rwrist 17.5699
rhand -15.236 -36.7977
rfingers 7.12502
rthumb 10.9371 -66.4928
lclavicle 7.10904e-014 -3.10104e-014
lhumerus -50.5365 32.2325 59.5976
lradius 20.749
lwrist -40.4308
lhand 2.04168 18.5976
lfingers 7.12502
lthumb 27.5445 46.6024
rfemur -0.441326 -2.34592 32.2404
rtibia 22.4123
rfoot -12.3054 -3.95804
rtoes 1.84918
lfemur -31.825 -4.78998 -8.54708
ltibia 17.7323
lfoot -2.13232 6.92617
ltoes -9.14433
298
root -5.7381 17.8521 4.49509 -271.933 -81.6252 281.011
lowerback -1.80292 6.43565 6.64308
upperback -2.06594 8.45518 2.10369
thorax -0.497559 4.13634 -1.3424
lowerneck -17.9101 -5.56742 -7.81465
upperneck 15.4871 -7.45285 9.3472
head 8.42219 -3.09544 3.47441
rclavicle -4.31114e-014 9.93923e-015
rhumerus -19.6336 -15.6385 -78.8609
rradius 17.8276
rwrist 20.1641
rhand -15.2263 -36.6243
rfingers 7.12502
rthumb 10.9464 -66.3189
lclavicle -4.31114e-014 9.93923e-015
lhumerus -50.5236 32.3511 59.391
lradius 20.6563
lwrist -40.6138
lhand 1.789 18.6722
lfingers 7.12502
lthumb 27.3028 46.7153
rfemur -0.606645 -2.33701 31.8141
rtibia 23.6032
rfoot -11.6699 -3.52794
rtoes 1.44443
lfemur -31.5917 -4.79636 -8.74246
ltibia 17.9519
lfoot -2.08458 6.90614
ltoes -8.61107
299
root -5.9205 17.8492 4.50995 -268.528 -81.8323 277.594
lowerback -1.81529 6.31414 6.46134
upperback -2.06137 8.29568 2.07839
thorax -0.518107 4.059 -1.2767
lowerneck -18.0307 -5.35688 -7.64298
upperneck 15.5779 -7.18114 9.22089
head 8.43668 -2.96513 3.43975
rclavicle 5.99584e-014 3.97569e-016
rhumerus -21.1836 -19.6529 -77.3251
rradius 16.6537
rwrist 23.0192
rhand -15.2 -36.4456
rfingers 7.12502
rthumb 10.9718 -66.1389
lclavicle 5.99584e-014 3.97569e-016
lhumerus -50.489 32.4601 59.191
lradius 20.5745
lwrist -40.7519
lhand 1.49806 18.7786
lfingers 7.12502
lthumb 27.0245 46.8652
rfemur -0.82829 -2.33113 31.3671
rtibia 24.8656
rfoot -10.9628 -3.15437
rtoes 1.09802
lfemur -31.3229 -4.78197 -8.97566
ltibia 18.2081
lfoot -2.06607 6.84952
ltoes -8.07177
300
root -6.10365 17.8476 4.52479 -265.139 -82.0209 274.182
lowerback -1.82074 6.18018 6.26917
upperback -2.05556 8.12045 2.05195
thorax -0.54271 3.97391 -1.20757
lowerneck -18.1457 -5.14158 -7.46519
upperneck 15.6682 -6.90484 9.09246
head 8.45015 -2.83277 3.40403
rclavicle 4.48384e-014 2.52457e-014
rhumerus -22.9652 -23.737 -75.3967
rradius 15.6259
rwrist 26.0835
rhand -15.1623 -36.26
rfingers 7.12502
rthumb 11.0082 -65.9514
lclavicle 4.48384e-014 2.52457e-014
lhumerus -50.4375 32.5672 58.9837
lradius 20.4992
lwrist -40.8642
lhand 1.17377 18.9053
lfingers 7.12502
lthumb 26.7142 47.0397
rfemur -1.10667 -2.32876 30.9018
rtibia 26.1951
rfoot -10.1859 -2.84371
rtoes 0.804368
lfemur -31.017 -4.74822 -9.24535
ltibia 18.493
lfoot -2.07823 6.76054
ltoes -7.52124
301
root -6.28735 17.8473 4.53969 -261.777 -82.1923 270.787
lowerback -1.8196 6.0341 6.06901
upperback -2.04844 7.92976 2.02502
thorax -0.570676 3.88118 -1.13542
lowerneck -18.2551 -4.92179 -7.28219
upperneck 15.7584 -6.62399 8.96148
head 8.46287 -2.69845 3.3672
rclavicle -3.50855e-014 -3.16068e-014
rhumerus -25.0223 -27.78 -73.0544
rradius 14.7531
rwrist 29.2814
rhand -15.1017 -36.0723
rfingers 7.12502
rthumb 11.0666 -65.7606
lclavicle -3.50855e-014 -3.16068e-014
lhumerus -50.3682 32.672 58.7711
lradius 20.4293
lwrist -40.9543
lhand 0.817741 19.0418
lfingers 7.12502
lthumb 26.3734 47.2277
rfemur -1.44437 -2.33172 30.42
rtibia 27.5886
rfoot -9.34577 -2.59923
rtoes 0.571314
lfemur -30.6741 -4.69854 -9.54863
ltibia 18.7983
lfoot -2.121 6.64573
ltoes -6.95915
302
root -6.47145 17.8482 4.55455 -258.465 -82.3484 267.432
lowerback -1.81356 5.87602 5.86008
upperback -2.03935 7.72354 1.99839
thorax -0.60039 3.78085 -1.05869
lowerneck -18.3586 -4.69837 -7.09469
upperneck 15.8483 -6.33959 8.82796
head 8.47483 -2.5627 3.32924
rclavicle 1.58282e-014 -1.45113e-014
rhumerus -27.3833 -31.6565 -70.2955
rradius 14.0339
rwrist 32.5074
rhand -15.0259 -35.8781
rfingers 7.12502
rthumb 11.1397 -65.5624
lclavicle 1.58282e-014 -1.45113e-014
lhumerus -50.2809 32.7809 58.5506
lradius 20.362
lwrist -41.0334
lhand 0.43411 19.1911
lfingers 7.12502
lthumb 26.0061 47.4314
rfemur -1.84168 -2.34019 29.925
rtibia 29.0405
rfoot -8.45015 -2.42622
rtoes 0.385288
lfemur -30.2936 -4.63563 -9.88265
ltibia 19.1152
lfoot -2.19162 6.50788
ltoes -6.39452
303
root -6.65582 17.8504 4.56934 -255.218 -82.492 264.133
lowerback -1.80118 5.70545 5.64272
upperback -2.02936 7.50127 1.97188
thorax -0.633527 3.67259 -0.977812
lowerneck -18.4557 -4.47137 -6.90289
upperneck 15.9393 -6.05163 8.69128
head 8.4865 -2.42557 3.28998
rclavicle -1.04362e-014 5.36719e-015
rhumerus -30.052 -35.2299 -67.1491
rradius 13.4628
rwrist 35.6423
rhand -14.9307 -35.6828
rfingers 7.12502
rthumb 11.2316 -65.3622
lclavicle -1.04362e-014 5.36719e-015
lhumerus -50.1751 32.8919 58.3237
lradius 20.2963
lwrist -41.1006
lhand 0.0219757 19.3507
lfingers 7.12502
lthumb 25.6114 47.6484
rfemur -2.29874 -2.35504 29.4184
rtibia 30.5446
rfoot -7.50864 -2.32755
rtoes 0.235563
lfemur -29.8752 -4.56293 -10.2453
ltibia 19.4357
lfoot -2.28752 6.3499
ltoes -5.83312
